<?xml version="1.0" standalone="no"?>
<!DOCTYPE svg PUBLIC "-//W3C//DTD SVG 20010904//EN"
 "http://www.w3.org/TR/2001/REC-SVG-20010904/DTD/svg10.dtd">
<svg version="1.0" xmlns="http://www.w3.org/2000/svg"
 width="96.000000pt" height="96.000000pt" viewBox="0 0 96.000000 96.000000"
 preserveAspectRatio="xMidYMid meet">
<metadata>
Created by potrace 1.11, written by Peter Selinger 2001-2013
</metadata>
<g transform="translate(0.000000,96.000000) scale(0.100000,-0.100000)"
fill="#000000" stroke="none">
<path d="M0 480 l0 -480 480 0 480 0 0 480 0 480 -480 0 -480 0 0 -480z m240
255 c23 -12 30 -22 30 -46 0 -21 -4 -29 -12 -25 -90 37 -142 29 -136 -22 2
-22 15 -33 63 -59 87 -46 108 -75 103 -135 -8 -81 -72 -126 -164 -115 -61 6
-94 30 -94 67 0 35 -1 35 59 13 53 -19 95 -13 111 16 16 31 2 50 -60 81 -32
16 -67 41 -79 56 -26 33 -28 99 -5 133 34 47 127 66 184 36z m243 -9 c8 -8 34
-69 58 -135 23 -67 46 -121 49 -121 4 0 26 51 49 113 58 154 61 157 121 157
39 0 52 -4 60 -20 7 -12 9 -86 8 -197 l-3 -178 -37 -3 -38 -3 -2 168 -3 168
-44 -125 c-76 -214 -75 -212 -117 -208 l-37 3 -52 153 c-29 84 -55 156 -59
159 -3 4 -6 -67 -6 -156 l0 -162 -37 3 -38 3 -3 184 c-2 127 1 188 9 197 15
19 103 18 122 0z"/>
</g>
</svg>
